<svg xmlns="http://www.w3.org/2000/svg" viewBox="0 0 69.53 75.52"><title>article_icon_annoucements_svg</title><g data-name="new options"><path d="M19.48 71.46L9 62.25c.31-1.22.86-2.14.62-2.77s-1.17-1.27-1.89-1.78-1.74-1-2.6-1.59c-4.61-2.9-6.31-7.66-4-12.55a5 5 0 0 0-.52-5.28C-.53 36.37 0 35 1.44 33.9c3-2.34 2.5-5.28 1-7.92a5.53 5.53 0 0 1 .41-6.56c4.82-6.85 11.27-13.73 19.36-13 2.79.3 6.18-1.29 7.35-3.42 3.63-6.58 4.77-.81 9.92 2.7 3.76 2.56 7.31 5.32 12 5.92a4.09 4.09 0 0 1 2 1.12C58.17 17 62.75 21.43 66 27c2 3.42 4 6.85 2.31 11.11-.23.58.3 1.47.45 2.22.27 1.27.52 2.54.77 3.76a5.58 5.58 0 0 1-1.25.62c-1.19.15.86 1.88.73 3.55-.11 1.36-.52 0-.11 1.36.14.45-1.42 1.28-1.53 1.83-1.15 5.77 1.67 6.8-3.89 8.89-2.46.93-2.66 7.8-5.67 7.14a5 5 0 0 0-4.1 1.63A3.4 3.4 0 0 1 50 70.57c-2.69-.66-4.55.58-6.32 2.33-3.78 3.74-9.11 3.47-12.28-.68-1.56-2-3.38-2.81-5.9-2.11-2.18.59-4.37.98-6.02 1.35z" fill="#0f0904"/><path d="M65.7 39c0 7.44-1.07 11.93-5.48 15.11A8.3 8.3 0 0 0 58 57.58c-1.56 3.63-3.11 7.17-8 6.78-5 5.75-11 3.87-17 2.39-1.3-.32-2.84.27-4.25.55-9.58 1.9-21.36-7.68-21.8-17.72-.35-7.9-1.42-15.77-2-23.66-.46-6.07 8.46-15.71 16-16 6.83-.22 13.74 1.15 20.58 2.12a19.44 19.44 0 0 1 6.73 2.46c4.74 2.72 10.89 4.75 13.53 8.91C64.82 28.4 64.85 35.28 65.7 39z" fill="#5e718c"/><path d="M35.63 68.27c-13.78 0-22.77-5.38-27.12-18.27-1.62-4.75-.51-10.73.3-16 1.67-11.2 11.27-21.23 21.58-23.52 4.61-1 8.94-.76 12.79 2.32 5.28 4.22 11 8 15.64 12.84 2.29 2.39 3.33 6.68 3.55 10.2.57 8.73-2.37 16.88-6.91 24.16s-12.02 8.34-19.83 8.27z" fill="#809abf"/><path d="M60.51 32.18q2.23-3.59 4.13-7.35c-3.1-4.56-7.08-8.36-11.13-12.09a4.09 4.09 0 0 0-2-1.12c-4.7-.6-8.25-3.36-12-5.92-5.19-3.51-6.32-9.27-9.95-2.7-1.17 2.13-4.56 3.72-7.31 3.46-8.1-.76-14.55 6.11-19.36 13A5.53 5.53 0 0 0 2.48 26c1.45 2.64 1.92 5.58-1 7.92C0 35-.53 36.37.66 38.27a6 6 0 0 1 1 2.87c7 3.48 15.35 5.1 25.17 5.1 13.28.12 26.17-2 33.68-14.06z" fill="#fff" opacity=".2"/><path d="M47.63 52.85c-1.67-.7-6.13 5-7.76 4-.73-.42-8.26 2.29-8.36 1.49s-3.24-.86-3.28-1.64c-.14-2.76-.06-1.1-.28-3.85a3.09 3.09 0 0 1 1.11-3c1.59-1.21 1.83-2.76 1.41-4.6-.36-1.59-.53-3.22-.79-4.82-1.52-.48-2.86.17-4.37.15L23.54 39l2.93-3.76c-1.11-1.55-2.74-.72-4-1.18-1.47 1.19-1.18 2.94-2.04 4.4-1-.47-1.31-1.56-1.93-2.33s-1.08-1.54-1.68-2.4l3.54-7.29a1.92 1.92 0 0 1 1.77-1.06c1.11 1 .77 2.73 1.62 4.05.68-.92.51-2 .67-2.93.12-.75-.09-1.65.71-2.11a4 4 0 0 1 3.18-.77l1 .29C32.7 25 36.09 26 39.48 27a5.11 5.11 0 0 1 2.44 1.38c2.17 2.35 4.39 4.66 6.58 7a5.57 5.57 0 0 1 .5.83l-2.43 1.3c-.14.74.52.8.92 1 1.43.79 2.89 1.53 4.46 2.36-.74 1.39-2.41 1.45-3.31 2.73l1.95.62 1.63.49c.1.29.24.48.19.61-.69 1.75-4.01 6.95-4.78 7.53zm-14.5-25.41c-1.7.06-3 .17-3.29 2.08A5 5 0 0 0 32.73 31l1.48-1.56z"/></g></svg>